# xmcd
# 
# Track frame offsets:
#     150
#     22100
#     42083
#     57118
#     75308
#     98500
#     114188
#     136630
#     154630
#     176298
#     196278
#     217203
#     232165
# 
# Disc length: 3415
# 
# Revision: 17
# Processed by: cddbd v1.5.2PL0 Copyright (c) Steve Scherf et al.
# Submitted via: fre:ac v1.0.27
# 
DISCID=9b0d550d
DTITLE=玉置浩二 - ワインレッドの心
DYEAR=1999
DGENRE=J-Pop
TTITLE0=To me
TTITLE1=ワインレッドの心
TTITLE2=Friend
TTITLE3=夏の終りのハーモニー
TTITLE4=夢のつづき
TTITLE5=瞳を閉じて
TTITLE6=恋の予感
TTITLE7=あなたに
TTITLE8=悲しみにさよなら
TTITLE9=碧い瞳のエリス
TTITLE10=朝の陽ざしに君がいて
TTITLE11=ゆびきり
TTITLE12=あの頃へ
EXTD=
EXTT0=
EXTT1=
EXTT2=
EXTT3=
EXTT4=
EXTT5=
EXTT6=
EXTT7=
EXTT8=
EXTT9=
EXTT10=
EXTT11=
EXTT12=
PLAYORDER=
